<?xml version="1.0" encoding="utf-8"?>
<!-- Generator: Adobe Illustrator 18.0.0, SVG Export Plug-In . SVG Version: 6.00 Build 0)  -->
<!DOCTYPE svg PUBLIC "-//W3C//DTD SVG 1.1//EN" "http://www.w3.org/Graphics/SVG/1.1/DTD/svg11.dtd">
<svg version="1.1" id="Слой_1" xmlns="http://www.w3.org/2000/svg" xmlns:xlink="http://www.w3.org/1999/xlink" x="0px" y="0px"
	 viewBox="0 0 176 49.1" enable-background="new 0 0 176 49.1" xml:space="preserve">
<g>
	<g>
		<path fill="#1D1D4D" d="M9.1,11.6v3.2l1.1-1.2l1.3-1.1c0.8-0.6,1.8-1,2.8-1.3c1-0.3,2.2-0.4,3.4-0.4c2.4,0,4.5,0.6,6.3,1.7
			c1.9,1.2,3.3,2.8,4.3,5c1,2.1,1.5,4.6,1.5,7.3c0,2.6-0.5,5-1.5,7.1c-0.5,1-1.1,2-1.8,2.9s-1.5,1.6-2.5,2.3c-1.8,1.3-4,1.9-6.4,1.9
			c-3.3,0-6-1.2-8.3-3.7v14H0V11.6H9.1z M14.4,30.9c1.1,0,2.1-0.3,2.9-0.8c0.8-0.5,1.5-1.3,2-2.2c0.5-1,0.7-2.1,0.7-3.3
			c0-1.2-0.2-2.3-0.7-3.2c-0.5-0.9-1.1-1.7-2-2.2c-0.9-0.5-1.9-0.8-3-0.8c-1.9,0-3.3,0.6-4.2,1.8c-1,1.2-1.5,2.7-1.5,4.4
			c0,1.7,0.5,3.2,1.4,4.4S12.5,30.9,14.4,30.9z"/>
		<path fill="#1D1D4D" d="M43.7,15c0.6-1,1.4-1.7,2.3-2.3c0.9-0.6,1.8-1,2.7-1.3c0.9-0.3,1.7-0.4,2.5-0.4c0.6,0,1,0,1.2,0
			c0.2,0,0.6,0.1,1.2,0.2v8.4c-0.7-0.3-1.5-0.4-2.4-0.4c-2.1,0-3.6,0.5-4.6,1.5c-1,1-1.7,2-2,3.2c-0.3,1.2-0.4,2.1-0.4,2.8v11.2
			h-9.5V11.6h9.1V15z"/>
		<path fill="#1D1D4D" d="M57,11.6h9.5v26.2H57V11.6z"/>
		<path fill="#1D1D4D" d="M82,14.6c2-2.6,4.9-4,8.5-4c2.6,0,4.5,0.6,5.9,1.9c1.4,1.3,2.3,2.8,2.7,4.5c0.2,0.8,0.4,1.7,0.5,2.7
			c0.1,1,0.2,1.9,0.2,2.8v15.3h-9.5V23.4c0-3.3-1.1-4.9-3.4-4.9c-1.4,0-2.5,0.5-3.5,1.6c-1,1.1-1.5,2.7-1.5,4.8v12.9h-9.5V11.6H82
			V14.6z"/>
		<path fill="#1D1D4D" d="M106.3,37.7V18.4h-3.4v-6.8h3.4V4.4h9.5v7.2h5.3v6.8h-5.3v19.3H106.3z"/>
	</g>
	<g>
		<path fill="#DC1E33" d="M109.7,39.7V20.3h-3.4v-6.8h3.4V6.3h9.5v7.2h5.3v6.8h-5.3v19.3H109.7z"/>
		<path fill="#DC1E33" d="M127.5,13.5h9.5v14.3c0,1.3,0.3,2.5,0.8,3.5c0.5,1,1.6,1.5,3.4,1.5c1.7,0,2.9-0.5,3.4-1.5
			c0.5-1,0.8-2.2,0.8-3.6V13.5h9.5v14.1l-0.1,1.9c0,0.3-0.1,0.6-0.1,1c-0.1,0.5-0.2,0.8-0.2,1c-0.1,0.7-0.3,1.3-0.6,2
			c-0.3,0.7-0.6,1.4-1.1,2.1c-0.9,1.4-2.3,2.6-4.2,3.6c-1.9,1-4.4,1.5-7.5,1.5c-5.7,0-9.4-1.4-11.1-4.2c-1.7-2.8-2.6-5.8-2.6-8.9
			V13.5z"/>
		<path fill="#DC1E33" d="M161.3,39.7V20.3h-3.4v-6.8h3.4V6.3h9.5v7.2h5.3v6.8h-5.3v19.3H161.3z"/>
	</g>
	<rect x="57" y="0" fill="#DC1E33" width="9.5" height="9.5"/>
</g>
</svg>
